<mxfile host="app.diagrams.net" modified="2024-04-17T02:29:40.191Z" agent="Mozilla/5.0 (Macintosh; Intel Mac OS X 10_15_7) AppleWebKit/605.1.15 (KHTML, like Gecko) Version/17.1 Safari/605.1.15" etag="jbztpWR3jRRAixHejQZm" version="24.2.5" type="github" pages="2">
  <diagram id="C5RBs43oDa-KdzZeNtuy" name="Page-1">
    <mxGraphModel dx="826" dy="828" grid="1" gridSize="10" guides="1" tooltips="1" connect="1" arrows="1" fold="1" page="1" pageScale="1" pageWidth="1654" pageHeight="2336" math="0" shadow="0">
      <root>
        <mxCell id="WIyWlLk6GJQsqaUBKTNV-0" />
        <mxCell id="WIyWlLk6GJQsqaUBKTNV-1" parent="WIyWlLk6GJQsqaUBKTNV-0" />
        <mxCell id="seSWAJgVq4mDhNHwcXBg-10" style="edgeStyle=orthogonalEdgeStyle;rounded=0;orthogonalLoop=1;jettySize=auto;html=1;entryX=0;entryY=0.5;entryDx=0;entryDy=0;exitX=0.989;exitY=0.371;exitDx=0;exitDy=0;exitPerimeter=0;" edge="1" parent="WIyWlLk6GJQsqaUBKTNV-1" source="seSWAJgVq4mDhNHwcXBg-0" target="seSWAJgVq4mDhNHwcXBg-1">
          <mxGeometry relative="1" as="geometry">
            <mxPoint x="250" y="585" as="sourcePoint" />
          </mxGeometry>
        </mxCell>
        <mxCell id="seSWAJgVq4mDhNHwcXBg-0" value="&lt;font style=&quot;font-size: 18px;&quot;&gt;Dataset&lt;/font&gt;" style="shape=note;whiteSpace=wrap;html=1;backgroundOutline=1;darkOpacity=0.05;fillColor=#e1d5e7;strokeColor=#9673a6;" vertex="1" parent="WIyWlLk6GJQsqaUBKTNV-1">
          <mxGeometry x="145" y="540" width="90" height="120" as="geometry" />
        </mxCell>
        <mxCell id="seSWAJgVq4mDhNHwcXBg-12" style="edgeStyle=orthogonalEdgeStyle;rounded=0;orthogonalLoop=1;jettySize=auto;html=1;exitX=1;exitY=0.5;exitDx=0;exitDy=0;entryX=0;entryY=0.5;entryDx=0;entryDy=0;" edge="1" parent="WIyWlLk6GJQsqaUBKTNV-1" source="seSWAJgVq4mDhNHwcXBg-1" target="seSWAJgVq4mDhNHwcXBg-7">
          <mxGeometry relative="1" as="geometry" />
        </mxCell>
        <mxCell id="seSWAJgVq4mDhNHwcXBg-1" value="&lt;font style=&quot;font-size: 18px;&quot;&gt;GLM&lt;/font&gt;" style="rounded=1;whiteSpace=wrap;html=1;fillColor=#dae8fc;strokeColor=#6c8ebf;" vertex="1" parent="WIyWlLk6GJQsqaUBKTNV-1">
          <mxGeometry x="330" y="554.5" width="120" height="60" as="geometry" />
        </mxCell>
        <mxCell id="seSWAJgVq4mDhNHwcXBg-4" value="&lt;font style=&quot;font-size: 18px;&quot;&gt;KG&lt;/font&gt;" style="rounded=1;whiteSpace=wrap;html=1;fillColor=#d5e8d4;strokeColor=#82b366;" vertex="1" parent="WIyWlLk6GJQsqaUBKTNV-1">
          <mxGeometry x="330" y="720" width="120" height="60" as="geometry" />
        </mxCell>
        <mxCell id="seSWAJgVq4mDhNHwcXBg-14" style="edgeStyle=orthogonalEdgeStyle;rounded=0;orthogonalLoop=1;jettySize=auto;html=1;exitX=0.5;exitY=1;exitDx=0;exitDy=0;" edge="1" parent="WIyWlLk6GJQsqaUBKTNV-1" source="seSWAJgVq4mDhNHwcXBg-7">
          <mxGeometry relative="1" as="geometry">
            <mxPoint x="654" y="690" as="targetPoint" />
          </mxGeometry>
        </mxCell>
        <mxCell id="seSWAJgVq4mDhNHwcXBg-7" value="&lt;font style=&quot;font-size: 18px;&quot;&gt;New leaves&lt;/font&gt;" style="shape=parallelogram;perimeter=parallelogramPerimeter;whiteSpace=wrap;html=1;fixedSize=1;fillColor=#e1d5e7;strokeColor=#9673a6;" vertex="1" parent="WIyWlLk6GJQsqaUBKTNV-1">
          <mxGeometry x="539" y="547" width="230" height="75" as="geometry" />
        </mxCell>
        <mxCell id="seSWAJgVq4mDhNHwcXBg-16" style="edgeStyle=orthogonalEdgeStyle;rounded=0;orthogonalLoop=1;jettySize=auto;html=1;entryX=1;entryY=0.5;entryDx=0;entryDy=0;" edge="1" parent="WIyWlLk6GJQsqaUBKTNV-1" target="seSWAJgVq4mDhNHwcXBg-4">
          <mxGeometry relative="1" as="geometry">
            <mxPoint x="590" y="750" as="sourcePoint" />
          </mxGeometry>
        </mxCell>
        <mxCell id="seSWAJgVq4mDhNHwcXBg-11" value="&lt;font style=&quot;font-size: 14px;&quot;&gt;Train&lt;/font&gt;" style="text;html=1;align=center;verticalAlign=middle;resizable=0;points=[];autosize=1;strokeColor=none;fillColor=none;" vertex="1" parent="WIyWlLk6GJQsqaUBKTNV-1">
          <mxGeometry x="260" y="548" width="50" height="30" as="geometry" />
        </mxCell>
        <mxCell id="seSWAJgVq4mDhNHwcXBg-13" value="&lt;font style=&quot;font-size: 14px;&quot;&gt;Extract&lt;/font&gt;" style="text;html=1;align=center;verticalAlign=middle;resizable=0;points=[];autosize=1;strokeColor=none;fillColor=none;" vertex="1" parent="WIyWlLk6GJQsqaUBKTNV-1">
          <mxGeometry x="455" y="548" width="70" height="30" as="geometry" />
        </mxCell>
        <mxCell id="seSWAJgVq4mDhNHwcXBg-15" value="&lt;font style=&quot;font-size: 14px;&quot;&gt;Filter&lt;/font&gt;" style="text;html=1;align=center;verticalAlign=middle;resizable=0;points=[];autosize=1;strokeColor=none;fillColor=none;" vertex="1" parent="WIyWlLk6GJQsqaUBKTNV-1">
          <mxGeometry x="670" y="650" width="50" height="30" as="geometry" />
        </mxCell>
        <mxCell id="seSWAJgVq4mDhNHwcXBg-17" value="&lt;font style=&quot;font-size: 14px;&quot;&gt;Expand&lt;/font&gt;" style="text;html=1;align=center;verticalAlign=middle;resizable=0;points=[];autosize=1;strokeColor=none;fillColor=none;" vertex="1" parent="WIyWlLk6GJQsqaUBKTNV-1">
          <mxGeometry x="490" y="713" width="70" height="30" as="geometry" />
        </mxCell>
        <mxCell id="seSWAJgVq4mDhNHwcXBg-18" style="edgeStyle=orthogonalEdgeStyle;rounded=0;orthogonalLoop=1;jettySize=auto;html=1;exitX=0;exitY=0.5;exitDx=0;exitDy=0;" edge="1" parent="WIyWlLk6GJQsqaUBKTNV-1" source="seSWAJgVq4mDhNHwcXBg-4">
          <mxGeometry relative="1" as="geometry">
            <mxPoint x="320" y="751" as="sourcePoint" />
            <mxPoint x="190" y="660" as="targetPoint" />
          </mxGeometry>
        </mxCell>
        <mxCell id="seSWAJgVq4mDhNHwcXBg-21" value="&lt;font style=&quot;font-size: 14px;&quot;&gt;Inject&lt;/font&gt;" style="text;html=1;align=center;verticalAlign=middle;resizable=0;points=[];autosize=1;strokeColor=none;fillColor=none;" vertex="1" parent="WIyWlLk6GJQsqaUBKTNV-1">
          <mxGeometry x="200" y="690" width="60" height="30" as="geometry" />
        </mxCell>
        <mxCell id="seSWAJgVq4mDhNHwcXBg-28" style="edgeStyle=orthogonalEdgeStyle;rounded=0;orthogonalLoop=1;jettySize=auto;html=1;exitX=1;exitY=0.5;exitDx=0;exitDy=0;entryX=0;entryY=0.5;entryDx=0;entryDy=0;endArrow=classic;endFill=1;" edge="1" parent="WIyWlLk6GJQsqaUBKTNV-1" source="seSWAJgVq4mDhNHwcXBg-25" target="seSWAJgVq4mDhNHwcXBg-26">
          <mxGeometry relative="1" as="geometry" />
        </mxCell>
        <mxCell id="seSWAJgVq4mDhNHwcXBg-29" value="&lt;font style=&quot;font-size: 18px;&quot;&gt;r&lt;/font&gt;" style="edgeLabel;html=1;align=center;verticalAlign=middle;resizable=0;points=[];" vertex="1" connectable="0" parent="seSWAJgVq4mDhNHwcXBg-28">
          <mxGeometry relative="1" as="geometry">
            <mxPoint x="-2" y="-2" as="offset" />
          </mxGeometry>
        </mxCell>
        <mxCell id="seSWAJgVq4mDhNHwcXBg-25" value="&lt;font style=&quot;font-size: 18px;&quot;&gt;h&lt;/font&gt;" style="ellipse;whiteSpace=wrap;html=1;aspect=fixed;fillColor=#d5e8d4;strokeColor=#82b366;" vertex="1" parent="WIyWlLk6GJQsqaUBKTNV-1">
          <mxGeometry x="590" y="695" width="30" height="30" as="geometry" />
        </mxCell>
        <mxCell id="seSWAJgVq4mDhNHwcXBg-26" value="&lt;font style=&quot;font-size: 18px;&quot;&gt;t&lt;/font&gt;" style="ellipse;whiteSpace=wrap;html=1;aspect=fixed;fillColor=#d5e8d4;strokeColor=#82b366;" vertex="1" parent="WIyWlLk6GJQsqaUBKTNV-1">
          <mxGeometry x="660" y="695" width="30" height="30" as="geometry" />
        </mxCell>
        <mxCell id="seSWAJgVq4mDhNHwcXBg-30" style="edgeStyle=orthogonalEdgeStyle;rounded=0;orthogonalLoop=1;jettySize=auto;html=1;exitX=1;exitY=0.5;exitDx=0;exitDy=0;entryX=0;entryY=0.5;entryDx=0;entryDy=0;endArrow=classic;endFill=1;" edge="1" parent="WIyWlLk6GJQsqaUBKTNV-1" source="seSWAJgVq4mDhNHwcXBg-32" target="seSWAJgVq4mDhNHwcXBg-33">
          <mxGeometry relative="1" as="geometry" />
        </mxCell>
        <mxCell id="seSWAJgVq4mDhNHwcXBg-31" value="&lt;font style=&quot;font-size: 18px;&quot;&gt;r&lt;/font&gt;" style="edgeLabel;html=1;align=center;verticalAlign=middle;resizable=0;points=[];" vertex="1" connectable="0" parent="seSWAJgVq4mDhNHwcXBg-30">
          <mxGeometry relative="1" as="geometry">
            <mxPoint x="-2" y="-2" as="offset" />
          </mxGeometry>
        </mxCell>
        <mxCell id="seSWAJgVq4mDhNHwcXBg-32" value="&lt;font style=&quot;font-size: 18px;&quot;&gt;h&lt;/font&gt;" style="ellipse;whiteSpace=wrap;html=1;aspect=fixed;fillColor=#d5e8d4;strokeColor=#82b366;" vertex="1" parent="WIyWlLk6GJQsqaUBKTNV-1">
          <mxGeometry x="606" y="713" width="30" height="30" as="geometry" />
        </mxCell>
        <mxCell id="seSWAJgVq4mDhNHwcXBg-33" value="&lt;font style=&quot;font-size: 18px;&quot;&gt;t&lt;/font&gt;" style="ellipse;whiteSpace=wrap;html=1;aspect=fixed;fillColor=#d5e8d4;strokeColor=#82b366;" vertex="1" parent="WIyWlLk6GJQsqaUBKTNV-1">
          <mxGeometry x="676" y="713" width="30" height="30" as="geometry" />
        </mxCell>
        <mxCell id="seSWAJgVq4mDhNHwcXBg-38" style="edgeStyle=orthogonalEdgeStyle;rounded=0;orthogonalLoop=1;jettySize=auto;html=1;exitX=1;exitY=0.5;exitDx=0;exitDy=0;entryX=0;entryY=0.5;entryDx=0;entryDy=0;endArrow=classic;endFill=1;" edge="1" parent="WIyWlLk6GJQsqaUBKTNV-1" source="seSWAJgVq4mDhNHwcXBg-40">
          <mxGeometry relative="1" as="geometry">
            <mxPoint x="690.0000000000057" y="750" as="targetPoint" />
          </mxGeometry>
        </mxCell>
        <mxCell id="seSWAJgVq4mDhNHwcXBg-39" value="&lt;font style=&quot;font-size: 18px;&quot;&gt;r&lt;/font&gt;" style="edgeLabel;html=1;align=center;verticalAlign=middle;resizable=0;points=[];" vertex="1" connectable="0" parent="seSWAJgVq4mDhNHwcXBg-38">
          <mxGeometry relative="1" as="geometry">
            <mxPoint x="-2" y="-2" as="offset" />
          </mxGeometry>
        </mxCell>
        <mxCell id="seSWAJgVq4mDhNHwcXBg-40" value="&lt;font style=&quot;font-size: 18px;&quot;&gt;h&lt;/font&gt;" style="ellipse;whiteSpace=wrap;html=1;aspect=fixed;fillColor=#d5e8d4;strokeColor=#82b366;" vertex="1" parent="WIyWlLk6GJQsqaUBKTNV-1">
          <mxGeometry x="620" y="735" width="30" height="30" as="geometry" />
        </mxCell>
        <mxCell id="seSWAJgVq4mDhNHwcXBg-41" value="&lt;font style=&quot;font-size: 18px;&quot;&gt;t&lt;/font&gt;" style="ellipse;whiteSpace=wrap;html=1;aspect=fixed;fillColor=#d5e8d4;strokeColor=#82b366;" vertex="1" parent="WIyWlLk6GJQsqaUBKTNV-1">
          <mxGeometry x="690" y="736" width="30" height="30" as="geometry" />
        </mxCell>
        <mxCell id="seSWAJgVq4mDhNHwcXBg-42" value="&lt;font style=&quot;font-size: 18px;&quot;&gt;New triples&lt;/font&gt;" style="text;html=1;align=center;verticalAlign=middle;resizable=0;points=[];autosize=1;strokeColor=none;fillColor=none;" vertex="1" parent="WIyWlLk6GJQsqaUBKTNV-1">
          <mxGeometry x="606" y="766" width="110" height="30" as="geometry" />
        </mxCell>
        <mxCell id="l7xfD-vt20LBpINy5ArI-0" value="" style="html=1;outlineConnect=0;whiteSpace=wrap;fillColor=#dae8fc;shape=mxgraph.archimate3.network;strokeColor=#6c8ebf;rotation=30;" vertex="1" parent="WIyWlLk6GJQsqaUBKTNV-1">
          <mxGeometry x="357.5" y="600" width="65" height="50" as="geometry" />
        </mxCell>
        <mxCell id="KXxSulnn0EWlaJi8Kfnv-10" style="edgeStyle=orthogonalEdgeStyle;rounded=0;orthogonalLoop=1;jettySize=auto;html=1;exitX=0.5;exitY=0;exitDx=0;exitDy=0;entryX=0.5;entryY=1;entryDx=0;entryDy=0;" edge="1" parent="WIyWlLk6GJQsqaUBKTNV-1" source="KXxSulnn0EWlaJi8Kfnv-9" target="seSWAJgVq4mDhNHwcXBg-4">
          <mxGeometry relative="1" as="geometry" />
        </mxCell>
        <mxCell id="KXxSulnn0EWlaJi8Kfnv-9" value="&lt;font style=&quot;font-size: 18px;&quot;&gt;seed KG&lt;/font&gt;" style="rounded=1;whiteSpace=wrap;html=1;fillColor=#d5e8d4;strokeColor=#82b366;" vertex="1" parent="WIyWlLk6GJQsqaUBKTNV-1">
          <mxGeometry x="352.5" y="830" width="75" height="50" as="geometry" />
        </mxCell>
        <mxCell id="KXxSulnn0EWlaJi8Kfnv-11" value="Initialization" style="text;html=1;align=center;verticalAlign=middle;resizable=0;points=[];autosize=1;strokeColor=none;fillColor=none;" vertex="1" parent="WIyWlLk6GJQsqaUBKTNV-1">
          <mxGeometry x="390" y="796" width="90" height="30" as="geometry" />
        </mxCell>
      </root>
    </mxGraphModel>
  </diagram>
  <diagram id="gVfOctA3C0h_B_90342c" name="Page-2">
    <mxGraphModel dx="1306" dy="1449" grid="1" gridSize="10" guides="1" tooltips="1" connect="1" arrows="1" fold="1" page="1" pageScale="1" pageWidth="1654" pageHeight="2336" math="0" shadow="0">
      <root>
        <mxCell id="0" />
        <mxCell id="1" parent="0" />
        <mxCell id="EGaAuq2JkQWhegBWq2tw-6" value="" style="group" vertex="1" connectable="0" parent="1">
          <mxGeometry x="290" y="190" width="200" height="90" as="geometry" />
        </mxCell>
        <mxCell id="EGaAuq2JkQWhegBWq2tw-1" style="edgeStyle=orthogonalEdgeStyle;rounded=0;orthogonalLoop=1;jettySize=auto;html=1;exitX=1;exitY=0.5;exitDx=0;exitDy=0;entryX=0;entryY=0.5;entryDx=0;entryDy=0;endArrow=classic;endFill=1;" edge="1" parent="EGaAuq2JkQWhegBWq2tw-6" source="EGaAuq2JkQWhegBWq2tw-3" target="EGaAuq2JkQWhegBWq2tw-4">
          <mxGeometry relative="1" as="geometry" />
        </mxCell>
        <mxCell id="EGaAuq2JkQWhegBWq2tw-2" value="&lt;font style=&quot;font-size: 18px;&quot;&gt;r&lt;/font&gt;" style="edgeLabel;html=1;align=center;verticalAlign=middle;resizable=0;points=[];" vertex="1" connectable="0" parent="EGaAuq2JkQWhegBWq2tw-1">
          <mxGeometry relative="1" as="geometry">
            <mxPoint y="-2" as="offset" />
          </mxGeometry>
        </mxCell>
        <mxCell id="EGaAuq2JkQWhegBWq2tw-5" value="Text" style="edgeLabel;html=1;align=center;verticalAlign=middle;resizable=0;points=[];" vertex="1" connectable="0" parent="EGaAuq2JkQWhegBWq2tw-1">
          <mxGeometry x="1" y="-9" relative="1" as="geometry">
            <mxPoint x="8" y="-6" as="offset" />
          </mxGeometry>
        </mxCell>
        <mxCell id="EGaAuq2JkQWhegBWq2tw-3" value="&lt;font style=&quot;font-size: 18px;&quot;&gt;h&lt;/font&gt;" style="ellipse;whiteSpace=wrap;html=1;aspect=fixed;fillColor=#d5e8d4;strokeColor=#82b366;" vertex="1" parent="EGaAuq2JkQWhegBWq2tw-6">
          <mxGeometry width="44.44444444444444" height="44.44444444444444" as="geometry" />
        </mxCell>
        <mxCell id="EGaAuq2JkQWhegBWq2tw-4" value="&lt;font style=&quot;font-size: 18px;&quot;&gt;t&lt;/font&gt;" style="ellipse;whiteSpace=wrap;html=1;aspect=fixed;fillColor=#d5e8d4;strokeColor=#82b366;" vertex="1" parent="EGaAuq2JkQWhegBWq2tw-6">
          <mxGeometry x="140" width="44.44444444444444" height="44.44444444444444" as="geometry" />
        </mxCell>
        <mxCell id="EGaAuq2JkQWhegBWq2tw-8" value="&lt;font style=&quot;font-size: 18px;&quot;&gt;head&lt;/font&gt;" style="text;html=1;align=center;verticalAlign=middle;resizable=0;points=[];autosize=1;strokeColor=none;fillColor=none;" vertex="1" parent="EGaAuq2JkQWhegBWq2tw-6">
          <mxGeometry x="-7.560000000000002" y="44" width="60" height="30" as="geometry" />
        </mxCell>
        <mxCell id="EGaAuq2JkQWhegBWq2tw-9" value="&lt;font style=&quot;font-size: 18px;&quot;&gt;tail&lt;/font&gt;" style="text;html=1;align=center;verticalAlign=middle;resizable=0;points=[];autosize=1;strokeColor=none;fillColor=none;" vertex="1" parent="EGaAuq2JkQWhegBWq2tw-6">
          <mxGeometry x="137.22000000000003" y="46" width="50" height="30" as="geometry" />
        </mxCell>
        <mxCell id="EGaAuq2JkQWhegBWq2tw-10" value="&lt;font style=&quot;font-size: 18px;&quot;&gt;relation&lt;/font&gt;" style="text;html=1;align=center;verticalAlign=middle;resizable=0;points=[];autosize=1;strokeColor=none;fillColor=none;" vertex="1" parent="1">
          <mxGeometry x="345" y="170" width="80" height="30" as="geometry" />
        </mxCell>
        <mxCell id="LN2ZpQ5dUskNEg_RxSko-4" value="" style="edgeStyle=orthogonalEdgeStyle;rounded=0;orthogonalLoop=1;jettySize=auto;html=1;strokeWidth=3;strokeColor=#007FFF;" edge="1" parent="1" target="LN2ZpQ5dUskNEg_RxSko-2">
          <mxGeometry relative="1" as="geometry">
            <mxPoint x="370" y="370" as="sourcePoint" />
          </mxGeometry>
        </mxCell>
        <mxCell id="LN2ZpQ5dUskNEg_RxSko-1" value="" style="sketch=0;pointerEvents=1;shadow=0;dashed=0;html=1;strokeColor=none;fillColor=#3399FF;labelPosition=center;verticalLabelPosition=bottom;verticalAlign=top;align=center;outlineConnect=0;shape=mxgraph.veeam2.report;" vertex="1" parent="1">
          <mxGeometry x="280" y="330" width="70" height="80" as="geometry" />
        </mxCell>
        <mxCell id="LN2ZpQ5dUskNEg_RxSko-2" value="&lt;font color=&quot;#007fff&quot; style=&quot;font-size: 36px;&quot;&gt;&amp;lt;h, r, t&amp;gt;&lt;/font&gt;" style="text;html=1;align=center;verticalAlign=middle;resizable=0;points=[];autosize=1;strokeColor=none;fillColor=none;" vertex="1" parent="1">
          <mxGeometry x="425" y="340" width="150" height="60" as="geometry" />
        </mxCell>
        <mxCell id="LN2ZpQ5dUskNEg_RxSko-3" value="&lt;font color=&quot;#007fff&quot; style=&quot;font-size: 18px;&quot;&gt;texts&lt;/font&gt;" style="text;html=1;align=center;verticalAlign=middle;resizable=0;points=[];autosize=1;strokeColor=none;fillColor=none;" vertex="1" parent="1">
          <mxGeometry x="284" y="410" width="60" height="30" as="geometry" />
        </mxCell>
      </root>
    </mxGraphModel>
  </diagram>
</mxfile>
